<svg width="300" height="300" viewBox="0 0 300 300" xmlns="http://www.w3.org/2000/svg"><g transform="translate(38 72)" fill="none" fill-rule="evenodd"><path d="M17.095 156C11.878 143.323 9 129.43 9 114.862 9 55.292 57.13 7 116.5 7S224 55.291 224 114.862c0 14.568-2.878 28.46-8.095 41.138H17.095z" fill="#744C9E"/><path d="M5.554 5.036L116 17.524v14.288L5.545 43.965a1.453 1.453 0 0 1-.314.035C2.342 44 0 35.27 0 24.5S2.342 5 5.231 5c.109 0 .216.012.323.036z" fill-opacity=".5" fill="#F8E71C"/><path d="M95.59 81H69.48a18.687 18.687 0 0 1-.082-.084h-5.079v-.117C59.101 80.392 55 76.226 55 71.147c0-5.348 4.548-9.684 10.158-9.684h.058C67.755 54.2 74.55 49 82.535 49c9.984 0 18.11 8.13 18.377 18.264a7.304 7.304 0 0 1 3.7-1c4.08 0 7.388 3.336 7.388 7.452 0 3.573-2.492 6.558-5.818 7.284h-3.138a7.283 7.283 0 0 1-.346-.084h-7.026L95.59 81z" stroke="#979797" fill="#A07DC4"/><path fill="#F8E71C" d="M107 15h28v17h-28z"/><path fill="#FDFDFC" d="M106.985 42h25.722L138 142h-36z"/><path d="M120.5 110a8.5 8.5 0 1 0 0 17 8.5 8.5 0 0 0 0-17zm-6.674 8.589l6.585 6.585a6.674 6.674 0 0 1-6.585-6.585zm8.168 6.418l-8-8a6.677 6.677 0 0 1 11.902-2.435l-.924.815a5.45 5.45 0 0 0-9.597 1.257l6.98 6.98a5.46 5.46 0 0 0 3.436-3.816h-2.894V118.5H127.175a6.677 6.677 0 0 1-5.181 6.507z" fill="#744C9E" fill-rule="nonzero"/><path fill="#D894E6" d="M102 32h36v11h-36z"/><rect fill="#D894E6" x="103" y="13" width="35" height="5" rx="2.5"/><path d="M108 15c0-8.284 5.596-15 12.5-15S133 6.716 133 15h-25z" fill="#D894E6"/><path d="M133 12h-13V.008c.141-.005.283-.008.425-.008 6.3 0 11.533 5.183 12.575 12z" fill-opacity=".1" fill="#744C9E"/><path d="M193 156H46c15.52-10.225 42.64-17 73.5-17s57.98 6.775 73.5 17z" fill="#7ED321"/><path fill-opacity=".1" fill="#744C9E" d="M120 43h52.184L205 156h-85zM126 32h12v11h-12zM124.062 18H135v14h-11c1.364-1.845 2.198-4.32 2.198-7.042 0-2.68-.81-5.122-2.136-6.958z"/><path d="M92.928 99h17.4l.08-.083h3.398v-.023c3.47-.279 6.194-3.012 6.194-6.343 0-3.516-3.035-6.366-6.78-6.366h-.038c-1.69-4.77-6.225-8.185-11.554-8.185-6.652 0-12.067 5.322-12.257 11.959a4.963 4.963 0 0 0-2.433-.632c-2.727 0-4.938 2.184-4.938 4.878 0 2.387 1.736 4.373 4.028 4.795h1.82c.125-.023.249-.05.37-.083h4.629l.08.083h0zM169.17 49h21.067l.08-.083h4.237v-.033C198.729 48.521 202 45.13 202 41c0-4.372-3.667-7.917-8.19-7.917l-.13.001C191.62 27.204 186.14 23 179.703 23c-8.06 0-14.62 6.593-14.845 14.813a5.938 5.938 0 0 0-2.86-.73c-3.313 0-5.998 2.705-5.998 6.042A6.035 6.035 0 0 0 160.593 49h2.81c.104-.025.207-.053.308-.083h5.379l.08.083h0z" stroke="#979797" fill="#B595D7"/></g></svg>